<?xml version="1.0" encoding="UTF-8"?>
<svg xmlns="http://www.w3.org/2000/svg" xmlns:xlink="http://www.w3.org/1999/xlink" width="358.9pt" height="315.7pt" viewBox="0 0 358.9 315.7" version="1.1">
	<defs>
		<clipPath id="clip1">
			<path d="M 205 293 L 305 293 L 305 315.699219 L 205 315.699219 Z M 205 293 "/>
		</clipPath>
		<clipPath id="clip2">
			<path d="M 316 1 L 358.898438 1 L 358.898438 24 L 316 24 Z M 316 1 "/>
		</clipPath>
	</defs>
	<g id="surface1">
		<path style=" stroke:none;fill-rule:evenodd;fill:rgb(66.992188%,32.151794%,21.166992%);fill-opacity:1;" d="M 110.167969 1.375 L 290.660156 1.375 L 290.660156 241.140625 L 114.84375 241.140625 L 111.269531 232.503906 L 109.5625 214.242188 L 128.722656 174.925781 L 103.394531 172.160156 L 103.394531 8.269531 Z M 110.167969 1.375 "/>
		<path style=" stroke:none;fill-rule:evenodd;fill:rgb(100%,100%,100%);fill-opacity:1;" d="M 283.609375 241.140625 L 288.300781 241.140625 L 288.300781 1.324219 L 283.609375 1.324219 Z M 283.609375 241.140625 "/>
		<path style=" stroke:none;fill-rule:evenodd;fill:rgb(66.992188%,32.151794%,21.166992%);fill-opacity:1;" d="M 288.3125 241.140625 L 293.003906 241.140625 L 293.003906 1.324219 L 288.3125 1.324219 Z M 288.3125 241.140625 "/>
		<path style=" stroke:none;fill-rule:evenodd;fill:rgb(96.09375%,52.929688%,19.993591%);fill-opacity:1;" d="M 293.015625 241.140625 L 306.308594 241.140625 L 306.308594 1.324219 L 293.015625 1.324219 Z M 293.015625 241.140625 "/>
		<path style=" stroke:none;fill-rule:evenodd;fill:rgb(100%,100%,100%);fill-opacity:1;" d="M 292.992188 1.355469 L 306.308594 14.671875 L 292.992188 27.984375 Z M 292.992188 1.355469 "/>
		<path style=" stroke:none;fill-rule:evenodd;fill:rgb(100%,100%,100%);fill-opacity:1;" d="M 292.992188 27.996094 L 306.308594 41.304688 L 292.992188 54.617188 Z M 292.992188 27.996094 "/>
		<path style=" stroke:none;fill-rule:evenodd;fill:rgb(100%,100%,100%);fill-opacity:1;" d="M 292.992188 54.628906 L 306.308594 67.945313 L 292.992188 81.257813 Z M 292.992188 54.628906 "/>
		<path style=" stroke:none;fill-rule:evenodd;fill:rgb(100%,100%,100%);fill-opacity:1;" d="M 292.992188 81.269531 L 306.308594 94.582031 L 292.992188 107.894531 Z M 292.992188 81.269531 "/>
		<path style=" stroke:none;fill-rule:evenodd;fill:rgb(100%,100%,100%);fill-opacity:1;" d="M 292.992188 107.90625 L 306.308594 121.21875 L 292.992188 134.53125 Z M 292.992188 107.90625 "/>
		<path style=" stroke:none;fill-rule:evenodd;fill:rgb(100%,100%,100%);fill-opacity:1;" d="M 292.992188 134.542969 L 306.308594 147.855469 L 292.992188 161.167969 Z M 292.992188 134.542969 "/>
		<path style=" stroke:none;fill-rule:evenodd;fill:rgb(100%,100%,100%);fill-opacity:1;" d="M 292.992188 161.179688 L 306.308594 174.492188 L 292.992188 187.804688 Z M 292.992188 161.179688 "/>
		<path style=" stroke:none;fill-rule:evenodd;fill:rgb(100%,100%,100%);fill-opacity:1;" d="M 292.992188 187.816406 L 306.308594 201.128906 L 292.992188 214.441406 Z M 292.992188 187.816406 "/>
		<path style=" stroke:none;fill-rule:evenodd;fill:rgb(100%,100%,100%);fill-opacity:1;" d="M 292.992188 214.449219 L 306.308594 227.761719 L 292.992188 241.074219 Z M 292.992188 214.449219 "/>
		<path style=" stroke:none;fill-rule:evenodd;fill:rgb(96.09375%,52.929688%,19.993591%);fill-opacity:1;" d="M 113.503906 23.972656 L 113.765625 23.898438 L 116.625 23.972656 L 118.707031 23.972656 C 118.707031 20.800781 120.472656 14.164063 121.332031 11.484375 C 122.746094 7.082031 123.941406 4.859375 126.214844 1.375 L 125.90625 1.375 C 122.167969 1.953125 117.101563 6.847656 115.574219 9.578125 C 114.746094 11.050781 113.3125 14.675781 113.035156 16.566406 C 112.753906 18.480469 112.019531 23.972656 113.503906 23.972656 Z M 113.503906 23.972656 "/>
		<path style=" stroke:none;fill-rule:evenodd;fill:rgb(96.09375%,52.929688%,19.993591%);fill-opacity:1;" d="M 80.75 51.671875 C 80.777344 51.652344 85.386719 44.808594 85.992188 43.992188 C 87.722656 41.644531 89.773438 38.945313 92.289063 37.394531 C 96.824219 34.597656 103.941406 30.363281 110.90625 30.363281 L 111.6875 30.363281 C 115.683594 30.363281 120.746094 32.300781 122.800781 34.421875 C 124.578125 36.257813 124.652344 36.929688 126.054688 38.816406 C 127.277344 40.464844 127.699219 42.863281 128.550781 44.21875 L 129.363281 51.671875 L 129.621094 51.984375 L 127.542969 63.921875 L 128.0625 63.921875 C 128.519531 62.179688 131.03125 59.226563 131.699219 56.730469 C 132.417969 54.046875 133.523438 51.078125 133.523438 47.675781 C 133.523438 36.601563 125.660156 26.371094 115.066406 26.371094 L 114.285156 26.371094 C 106.746094 26.371094 97.367188 30.058594 92.902344 34.027344 C 88.9375 37.550781 80.75 44.722656 80.75 51.671875 Z M 80.75 51.671875 "/>
		<path style=" stroke:none;fill-rule:evenodd;fill:rgb(96.09375%,52.929688%,19.993591%);fill-opacity:1;" d="M 124.039063 12.230469 C 124.472656 6.910156 126.183594 4.234375 129.972656 1.375 L 121.347656 1.375 C 116.59375 3.257813 112.351563 6.441406 109.578125 10.660156 C 108.292969 12.621094 105.953125 17.507813 105.382813 20.097656 C 105.042969 21.65625 104.359375 24.953125 104.289063 27.402344 C 91.613281 35.214844 83.976563 37.671875 68.664063 60.171875 C 67.355469 60.53125 50.128906 73.011719 47.402344 74.875 C 41.695313 78.765625 34.871094 88.710938 34.871094 98.257813 C 34.871094 101.617188 35.429688 104.691406 33.773438 106.988281 C 32.277344 109.054688 30.4375 110.351563 28.699219 112.175781 C 25.351563 115.671875 21.773438 118.703125 18.300781 122.296875 C 13.71875 127.039063 0.0351563 137.324219 0.0351563 145.132813 C 0.0351563 148.492188 4.042969 155.980469 7.3125 156.054688 C 7.902344 158.636719 7.503906 160.207031 8.429688 162.898438 C 8.980469 164.496094 10.238281 166.902344 11.140625 168.113281 C 12.523438 169.96875 17.472656 174.695313 20.054688 174.695313 L 21.09375 174.695313 C 21.367188 175.746094 25.140625 181.289063 25.964844 182.226563 C 28.21875 184.785156 30.3125 185.589844 33.3125 187.214844 C 33.78125 186.796875 34.089844 186.894531 34.089844 186.148438 L 34.089844 185.882813 C 34.089844 185.792969 33.15625 181.941406 32.945313 180.664063 C 32.546875 178.210938 32.519531 177.550781 33.050781 175.230469 C 41.242188 176.644531 51.183594 172.210938 52.671875 164.730469 C 54.554688 155.25 52.066406 149.351563 49.105469 142.414063 C 53.519531 147.140625 57.0625 156.660156 55.132813 163.105469 C 56.070313 166.300781 58.269531 171.171875 58.269531 174.164063 L 58.269531 175.230469 C 58.269531 181.324219 56.449219 183.710938 53.960938 187.328125 C 52.289063 189.765625 46.890625 193.035156 45.527344 194.9375 C 43.59375 193.988281 42.871094 193.566406 41.113281 192.539063 C 40.445313 192.144531 37.742188 190.144531 36.949219 190.144531 C 36.460938 190.144531 36.171875 191.125 36.171875 191.742188 C 36.171875 192.773438 39.957031 201.359375 40.589844 201.59375 L 40.589844 203.730469 C 40.589844 209.386719 43.953125 214.765625 46.765625 217.644531 C 49.644531 220.59375 55.855469 222.90625 61.386719 222.90625 C 65.953125 222.90625 77.242188 219.324219 77.242188 215.980469 C 77.242188 193.472656 95.5 186.535156 116.585938 175.824219 C 86.324219 194.28125 93.125 225.6875 114.84375 241.140625 C 106.285156 204.398438 140.910156 185.605469 142.921875 126.449219 C 141.972656 173.664063 115.914063 221.121094 162.835938 234.707031 C 142.597656 188.746094 180.066406 172.914063 159.878906 125.183594 C 181.917969 138.457031 154.824219 206.660156 196 215.609375 C 184.050781 192.472656 224.527344 135.023438 146.570313 90.167969 C 206.980469 106.464844 202.898438 170.867188 216.757813 194.164063 C 238.722656 127.289063 203.246094 88.097656 159.132813 70.289063 C 199.359375 74.058594 228.398438 114.246094 234.132813 162 C 234.15625 162.050781 234.164063 162.074219 234.167969 162.070313 C 259.3125 78.601563 195.117188 41.230469 144.347656 40.742188 C 169.371094 35.496094 211.265625 48 228.199219 65.542969 C 208.972656 28.011719 163.554688 11.699219 138.257813 22.753906 C 139.710938 17.664063 158.015625 11.699219 163.554688 11.699219 C 166.925781 11.699219 172.613281 12.71875 175.933594 13.511719 C 149.542969 -0.09375 135.660156 4.183594 124.039063 12.230469 Z M 124.039063 12.230469 "/>
		<path style=" stroke:none;fill-rule:evenodd;fill:rgb(100%,100%,100%);fill-opacity:1;" d="M 55.792969 110.796875 C 55.792969 109.765625 70.371094 94.285156 65.152344 94.285156 C 61.371094 96.996094 55.347656 98.8125 49.296875 98.8125 L 47.992188 98.8125 L 45.917969 98.542969 C 44.386719 98.628906 44.515625 100.628906 46.300781 100.835938 L 49.84375 101.253906 C 48.332031 104.824219 50.113281 108.453125 54.234375 108.671875 C 54.039063 109.53125 53.714844 110.320313 53.714844 111.332031 C 53.714844 111.65625 53.722656 111.945313 53.746094 112.21875 C 53.800781 113.292969 55.558594 113.242188 55.707031 112.21875 C 55.761719 111.800781 55.792969 111.328125 55.792969 110.796875 Z M 55.792969 110.796875 "/>
		<path style=" stroke:none;fill-rule:evenodd;fill:rgb(100%,100%,100%);fill-opacity:1;" d="M 23.359375 147.65625 C 24.5625 147.65625 25.539063 148.632813 25.539063 149.839844 C 25.539063 151.042969 24.5625 152.019531 23.359375 152.019531 C 22.15625 152.019531 21.179688 151.042969 21.179688 149.839844 C 21.179688 148.632813 22.15625 147.65625 23.359375 147.65625 Z M 23.359375 147.65625 "/>
		<path style=" stroke:none;fill-rule:evenodd;fill:rgb(100%,100%,100%);fill-opacity:1;" d="M 32.144531 143.550781 C 33.347656 143.550781 34.324219 144.527344 34.324219 145.734375 C 34.324219 146.933594 33.347656 147.910156 32.144531 147.910156 C 30.941406 147.910156 29.964844 146.933594 29.964844 145.734375 C 29.964844 144.527344 30.941406 143.550781 32.144531 143.550781 Z M 32.144531 143.550781 "/>
		<path style=" stroke:none;fill-rule:evenodd;fill:rgb(100%,100%,100%);fill-opacity:1;" d="M 20.976563 156.28125 C 22.183594 156.28125 23.15625 157.253906 23.15625 158.460938 C 23.15625 159.664063 22.183594 160.640625 20.976563 160.640625 C 19.773438 160.640625 18.796875 159.664063 18.796875 158.460938 C 18.796875 157.253906 19.773438 156.28125 20.976563 156.28125 Z M 20.976563 156.28125 "/>
		<path style=" stroke:none;fill-rule:evenodd;fill:rgb(96.09375%,52.929688%,19.993591%);fill-opacity:1;" d="M 104.542969 27.683594 C 101.84375 16.464844 104.175781 10.453125 111.210938 1.375 L 107.25 1.375 C 87.339844 9.703125 82.738281 30.683594 86.625 51.75 C 86.875 53.089844 87.214844 53.875 87.445313 54.410156 Z M 104.542969 27.683594 "/>
		<path style=" stroke:none;fill-rule:evenodd;fill:rgb(100%,100%,100%);fill-opacity:1;" d="M 32.226563 153.367188 C 33.433594 153.367188 34.410156 154.34375 34.410156 155.546875 C 34.410156 156.75 33.433594 157.726563 32.226563 157.726563 C 31.023438 157.726563 30.046875 156.75 30.046875 155.546875 C 30.046875 154.34375 31.023438 153.367188 32.226563 153.367188 Z M 32.226563 153.367188 "/>
		<path style=" stroke:none;fill-rule:evenodd;fill:rgb(100%,100%,100%);fill-opacity:1;" d="M 42.054688 150.316406 C 43.257813 150.316406 44.230469 151.289063 44.230469 152.496094 C 44.230469 153.699219 43.257813 154.675781 42.054688 154.675781 C 40.847656 154.675781 39.871094 153.699219 39.871094 152.496094 C 39.871094 151.289063 40.847656 150.316406 42.054688 150.316406 Z M 42.054688 150.316406 "/>
		<path style=" stroke:none;fill-rule:evenodd;fill:rgb(100%,100%,100%);fill-opacity:1;" d="M 29.40625 164.625 C 30.609375 164.625 31.585938 165.601563 31.585938 166.808594 C 31.585938 168.007813 30.609375 168.984375 29.40625 168.984375 C 28.199219 168.984375 27.222656 168.007813 27.222656 166.808594 C 27.222656 165.601563 28.199219 164.625 29.40625 164.625 Z M 29.40625 164.625 "/>
		<path style=" stroke:none;fill-rule:evenodd;fill:rgb(100%,100%,100%);fill-opacity:1;" d="M 39.019531 161.828125 C 40.226563 161.828125 41.203125 162.804688 41.203125 164.011719 C 41.203125 165.214844 40.226563 166.191406 39.019531 166.191406 C 37.816406 166.191406 36.839844 165.214844 36.839844 164.011719 C 36.839844 162.804688 37.816406 161.828125 39.019531 161.828125 Z M 39.019531 161.828125 "/>
		<path style=" stroke:none;fill-rule:evenodd;fill:rgb(66.992188%,32.151794%,21.166992%);fill-opacity:1;" d="M 114.675781 269.773438 C 114.710938 265.636719 115.710938 262.0625 117.671875 259.050781 C 119.632813 256.035156 122.183594 253.730469 125.320313 252.136719 C 128.457031 250.542969 131.652344 249.710938 134.910156 249.640625 C 138.839844 249.570313 142.554688 250.507813 146.058594 252.453125 C 149.5625 254.398438 152.101563 257.125 153.679688 260.628906 L 149.160156 260.628906 C 147.863281 258.3125 145.890625 256.5 143.246094 255.183594 C 140.597656 253.871094 137.855469 253.25 135.015625 253.320313 C 131.757813 253.421875 128.867188 254.273438 126.34375 255.867188 C 123.824219 257.464844 121.894531 259.515625 120.5625 262.019531 C 119.230469 264.527344 118.527344 267.109375 118.460938 269.773438 C 118.460938 272.960938 119.300781 275.785156 120.980469 278.234375 C 122.664063 280.6875 124.800781 282.597656 127.394531 283.964844 C 129.992188 285.332031 132.53125 286.070313 135.015625 286.171875 C 137.996094 286.3125 141.21875 285.394531 144.691406 283.414063 C 148.160156 281.429688 150.367188 278.53125 151.3125 274.710938 L 129.65625 274.710938 L 129.65625 271.191406 L 156.042969 271.191406 C 155.308594 277.183594 152.910156 281.8125 148.839844 285.066406 C 144.777344 288.328125 140.207031 289.90625 135.121094 289.800781 C 129.65625 289.726563 124.875 287.738281 120.773438 283.832031 C 116.671875 279.925781 114.640625 275.242188 114.675781 269.773438 Z M 161.351563 277.554688 L 161.351563 260.417969 L 165.242188 260.417969 L 165.242188 276.972656 C 165.242188 279.847656 166.09375 282.097656 167.792969 283.726563 C 169.492188 285.359375 171.515625 286.210938 173.863281 286.277344 C 176.351563 286.210938 178.464844 285.296875 180.195313 283.546875 C 181.929688 281.792969 182.796875 279.320313 182.796875 276.132813 L 182.796875 260.417969 L 186.6875 260.417969 L 186.6875 289.167969 L 183.113281 289.167969 L 183.113281 284.648438 C 182.238281 286.328125 180.949219 287.625 179.253906 288.539063 C 177.550781 289.449219 175.683594 289.90625 173.652344 289.90625 C 170.394531 289.90625 167.527344 288.800781 165.058594 286.59375 C 162.589844 284.386719 161.351563 281.371094 161.351563 277.554688 Z M 193.414063 287.539063 L 193.414063 260.417969 L 197.355469 260.417969 L 197.355469 288.746094 C 197.355469 291.234375 196.675781 293.539063 195.308594 295.660156 C 193.941406 297.78125 191.367188 298.964844 187.582031 299.207031 L 187.582031 295.425781 C 189.371094 295.351563 190.789063 294.808594 191.839844 293.792969 C 192.890625 292.777344 193.414063 290.691406 193.414063 287.539063 Z M 197.355469 256.945313 L 193.414063 256.945313 L 193.414063 250.269531 L 197.355469 250.269531 Z M 202.773438 274.976563 C 202.808594 271.859375 203.570313 269.144531 205.058594 266.828125 C 206.546875 264.515625 208.464844 262.730469 210.816406 261.46875 C 213.164063 260.207031 215.617188 259.609375 218.175781 259.679688 C 223.429688 259.820313 227.195313 261.921875 229.476563 265.984375 L 229.476563 260.417969 L 233.257813 260.417969 L 233.257813 289.167969 L 229.476563 289.167969 L 229.476563 283.703125 C 228.390625 285.664063 226.785156 287.199219 224.664063 288.300781 C 222.542969 289.40625 220.277344 289.90625 217.859375 289.800781 C 215.300781 289.765625 212.847656 289.117188 210.5 287.855469 C 208.152344 286.59375 206.277344 284.859375 204.875 282.652344 C 203.472656 280.441406 202.773438 277.886719 202.773438 274.976563 Z M 206.765625 274.082031 C 206.660156 275.800781 206.898438 277.394531 207.476563 278.863281 C 208.058594 280.335938 208.878906 281.609375 209.949219 282.675781 C 211.015625 283.746094 212.242188 284.5625 213.625 285.121094 C 215.011719 285.679688 216.421875 286 217.859375 286.070313 C 221.152344 286.105469 223.910156 284.980469 226.136719 282.703125 C 228.363281 280.421875 229.476563 277.851563 229.476563 274.976563 C 229.476563 271.824219 228.40625 269.160156 226.269531 266.988281 C 224.132813 264.816406 221.503906 263.65625 218.382813 263.519531 C 216.246094 263.414063 214.28125 263.902344 212.496094 264.988281 C 210.710938 266.074219 209.308594 267.480469 208.292969 269.195313 C 207.273438 270.910156 206.765625 272.542969 206.765625 274.082031 Z M 239.933594 289.167969 L 239.933594 260.3125 L 243.5625 260.3125 L 243.5625 264.621094 C 245.175781 261.328125 247.976563 259.679688 251.972656 259.679688 L 251.972656 263.621094 C 250.78125 263.585938 249.535156 263.914063 248.238281 264.59375 C 246.945313 265.277344 245.875 266.207031 245.035156 267.382813 C 244.191406 268.554688 243.769531 269.894531 243.769531 271.402344 L 243.769531 289.167969 Z M 254.546875 274.976563 C 254.585938 271.859375 255.34375 269.144531 256.835938 266.828125 C 258.324219 264.515625 260.242188 262.730469 262.589844 261.46875 C 264.9375 260.207031 267.390625 259.609375 269.949219 259.679688 C 275.207031 259.820313 278.972656 261.921875 281.25 265.984375 L 281.25 260.417969 L 285.035156 260.417969 L 285.035156 289.167969 L 281.25 289.167969 L 281.25 283.703125 C 280.164063 285.664063 278.5625 287.199219 276.441406 288.300781 C 274.320313 289.40625 272.050781 289.90625 269.632813 289.800781 C 267.074219 289.765625 264.621094 289.117188 262.273438 287.855469 C 259.925781 286.59375 258.050781 284.859375 256.648438 282.652344 C 255.25 280.441406 254.546875 277.886719 254.546875 274.976563 Z M 258.542969 274.082031 C 258.4375 275.800781 258.675781 277.394531 259.25 278.863281 C 259.832031 280.335938 260.652344 281.609375 261.722656 282.675781 C 262.792969 283.746094 264.015625 284.5625 265.402344 285.121094 C 266.785156 285.679688 268.195313 286 269.632813 286.070313 C 272.925781 286.105469 275.6875 284.980469 277.914063 282.703125 C 280.136719 280.421875 281.25 277.851563 281.25 274.976563 C 281.25 271.824219 280.179688 269.160156 278.042969 266.988281 C 275.90625 264.816406 273.277344 263.65625 270.160156 263.519531 C 268.019531 263.414063 266.058594 263.902344 264.269531 264.988281 C 262.484375 266.074219 261.085938 267.480469 260.066406 269.195313 C 259.050781 270.910156 258.542969 272.542969 258.542969 274.082031 Z M 295.023438 289.167969 L 295.023438 263.9375 L 288.976563 263.9375 L 288.976563 260.417969 L 295.023438 260.417969 L 295.023438 250.269531 L 298.910156 250.269531 L 298.910156 260.417969 L 305.585938 260.417969 L 305.585938 263.9375 L 298.910156 263.9375 L 298.910156 289.167969 Z M 295.023438 289.167969 "/>
		<g clip-path="url(#clip1)" clip-rule="nonzero">
			<path style=" stroke:none;fill-rule:evenodd;fill:rgb(66.992188%,32.151794%,21.166992%);fill-opacity:1;" d="M 210.035156 315.269531 L 210.035156 295.605469 L 205.074219 295.605469 L 205.074219 293.679688 L 217.09375 293.679688 L 217.09375 295.605469 L 212.191406 295.605469 L 212.191406 315.269531 Z M 217.125 307.011719 C 217.160156 305.554688 217.546875 304.21875 218.273438 303 C 219.007813 301.785156 220.035156 300.804688 221.367188 300.054688 C 222.703125 299.304688 224.15625 298.941406 225.730469 298.960938 C 226.605469 298.960938 227.511719 299.15625 228.457031 299.542969 C 229.402344 299.933594 230.25 300.460938 231.011719 301.132813 C 231.769531 301.804688 232.410156 302.617188 232.9375 303.570313 C 233.460938 304.523438 233.753906 305.511719 233.808594 306.542969 C 233.925781 308.160156 233.609375 309.671875 232.863281 311.082031 C 232.113281 312.492188 231.078125 313.601563 229.753906 314.410156 C 228.433594 315.21875 226.992188 315.621094 225.4375 315.621094 C 224.074219 315.621094 222.742188 315.273438 221.425781 314.582031 C 220.113281 313.890625 219.0625 312.886719 218.273438 311.566406 C 217.488281 310.238281 217.105469 308.722656 217.125 307.011719 Z M 219.222656 307.128906 C 219.222656 309.035156 219.835938 310.570313 221.0625 311.726563 C 222.289063 312.882813 223.765625 313.507813 225.496094 313.605469 C 226.449219 313.605469 227.394531 313.351563 228.328125 312.847656 C 229.261719 312.34375 230.039063 311.597656 230.660156 310.613281 C 231.28125 309.632813 231.59375 308.46875 231.59375 307.128906 C 231.59375 306.121094 231.3125 305.132813 230.75 304.167969 C 230.183594 303.207031 229.425781 302.4375 228.472656 301.863281 C 227.519531 301.289063 226.527344 301.011719 225.496094 301.03125 C 223.839844 301.070313 222.390625 301.671875 221.132813 302.839844 C 219.878906 304.007813 219.242188 305.4375 219.222656 307.128906 Z M 236.757813 308.820313 L 236.757813 299.308594 L 238.917969 299.308594 L 238.917969 308.5 C 238.917969 310.09375 239.390625 311.34375 240.332031 312.25 C 241.273438 313.152344 242.398438 313.628906 243.703125 313.664063 C 245.085938 313.628906 246.253906 313.121094 247.21875 312.148438 C 248.179688 311.175781 248.664063 309.804688 248.664063 308.03125 L 248.664063 299.308594 L 250.820313 299.308594 L 250.820313 315.269531 L 248.835938 315.269531 L 248.835938 312.757813 C 248.351563 313.695313 247.636719 314.414063 246.695313 314.921875 C 245.75 315.425781 244.710938 315.675781 243.585938 315.675781 C 241.773438 315.675781 240.1875 315.066406 238.816406 313.839844 C 237.441406 312.617188 236.757813 310.941406 236.757813 308.820313 Z M 254.5 315.269531 L 254.5 299.25 L 256.507813 299.25 L 256.507813 301.644531 C 257.40625 299.8125 258.960938 298.902344 261.179688 298.902344 L 261.179688 301.089844 C 260.515625 301.070313 259.824219 301.25 259.109375 301.628906 C 258.386719 302.007813 257.792969 302.523438 257.328125 303.175781 C 256.859375 303.828125 256.625 304.570313 256.625 305.410156 L 256.625 315.269531 Z M 263.25 299.308594 L 265.40625 299.308594 L 265.40625 315.269531 L 263.25 315.269531 Z M 263.25 293.679688 L 265.40625 293.679688 L 265.40625 297.382813 L 263.25 297.382813 Z M 268.355469 303.976563 C 268.21875 302.925781 268.382813 302.011719 268.839844 301.234375 C 269.292969 300.457031 269.890625 299.882813 270.632813 299.515625 C 271.371094 299.144531 272.089844 298.960938 272.789063 298.960938 C 273.917969 298.921875 274.949219 299.285156 275.882813 300.054688 C 276.816406 300.820313 277.3125 301.886719 277.371094 303.25 L 275.183594 303.25 C 275.164063 302.449219 274.921875 301.882813 274.453125 301.542969 C 273.988281 301.203125 273.433594 301.03125 272.789063 301.03125 C 272.226563 301.03125 271.691406 301.214844 271.183594 301.585938 C 270.679688 301.957031 270.417969 302.507813 270.398438 303.25 C 270.4375 303.382813 270.472656 303.527344 270.5 303.671875 C 270.527344 303.816406 270.554688 303.941406 270.574219 304.035156 C 270.75 304.679688 271.621094 305.28125 273.199219 305.84375 C 274.773438 306.410156 275.976563 307.035156 276.800781 307.726563 C 277.628906 308.417969 277.925781 309.636719 277.691406 311.386719 C 277.535156 312.808594 276.957031 313.871094 275.957031 314.570313 C 274.953125 315.269531 273.878906 315.621094 272.734375 315.621094 C 271.273438 315.621094 270.078125 315.132813 269.144531 314.160156 C 268.210938 313.191406 267.742188 312 267.742188 310.601563 L 269.902344 310.542969 C 269.921875 311.4375 270.226563 312.171875 270.820313 312.746094 C 271.414063 313.316406 272.089844 313.628906 272.851563 313.664063 C 273.585938 313.605469 274.230469 313.316406 274.773438 312.789063 C 275.320313 312.265625 275.589844 311.628906 275.589844 310.894531 C 275.589844 310.214844 275.378906 309.609375 274.949219 309.082031 C 274.519531 308.558594 273.859375 308.1875 272.964844 307.976563 C 270.105469 307.214844 268.570313 305.886719 268.355469 303.976563 Z M 280.40625 299.308594 L 282.449219 299.308594 L 282.449219 301.46875 C 282.855469 300.652344 283.429688 300.027344 284.167969 299.601563 C 284.910156 299.175781 285.753906 298.960938 286.707031 298.960938 C 287.835938 298.960938 288.910156 299.238281 289.929688 299.792969 C 290.953125 300.34375 291.742188 301.078125 292.3125 301.996094 C 292.910156 300.980469 293.664063 300.234375 294.570313 299.746094 C 295.476563 299.261719 296.421875 299.015625 297.414063 299.015625 C 299.164063 299.015625 300.714844 299.617188 302.070313 300.8125 C 303.421875 302.007813 304.097656 303.503906 304.097656 305.289063 L 304.097656 315.269531 L 301.996094 315.269531 L 301.996094 305.640625 C 301.996094 304.199219 301.554688 303.082031 300.667969 302.285156 C 299.785156 301.488281 298.71875 301.089844 297.472656 301.089844 C 296.367188 301.089844 295.40625 301.445313 294.597656 302.15625 C 293.789063 302.867188 293.390625 303.851563 293.390625 305.117188 L 293.390625 315.269531 L 291.171875 315.269531 L 291.171875 305.46875 C 291.171875 304.105469 290.722656 303.035156 289.828125 302.257813 C 288.9375 301.480469 287.855469 301.089844 286.589844 301.089844 C 285.484375 301.089844 284.53125 301.457031 283.746094 302.199219 C 282.960938 302.9375 282.566406 304.007813 282.566406 305.410156 L 282.566406 315.269531 L 280.40625 315.269531 Z M 280.40625 299.308594 "/>
		</g>
		<path style=" stroke:none;fill-rule:evenodd;fill:rgb(100%,100%,100%);fill-opacity:1;" d="M 262.785156 122.097656 C 265.28125 122.878906 267.847656 124.0625 271.664063 125.441406 C 277.34375 127.492188 280.445313 125.714844 280.253906 121.238281 C 280.484375 116.765625 277.394531 114.960938 271.699219 116.964844 C 267.867188 118.3125 265.292969 119.472656 262.789063 120.230469 C 262.390625 120.230469 262.070313 120.648438 262.0625 121.164063 C 262.0625 121.683594 262.382813 122.101563 262.785156 122.105469 Z M 262.785156 122.097656 "/>
		<path style=" stroke:none;fill-rule:evenodd;fill:rgb(100%,100%,100%);fill-opacity:1;" d="M 252.421875 102.460938 C 254.34375 100.683594 256.648438 99.054688 259.753906 96.441406 C 264.371094 92.546875 264.378906 88.96875 260.414063 86.898438 C 256.652344 84.464844 253.539063 86.234375 252.429688 92.171875 C 251.683594 96.160156 251.402344 98.96875 250.804688 101.515625 L 250.808594 101.515625 C 250.605469 101.863281 250.804688 102.351563 251.253906 102.613281 C 251.699219 102.875 252.222656 102.804688 252.421875 102.460938 Z M 252.421875 102.460938 "/>
		<path style=" stroke:none;fill-rule:evenodd;fill:rgb(100%,100%,100%);fill-opacity:1;" d="M 260.234375 110.894531 C 262.785156 110.3125 265.597656 110.058594 269.59375 109.34375 C 275.539063 108.285156 277.335938 105.1875 274.933594 101.410156 C 272.894531 97.421875 269.316406 97.398438 265.386719 101.984375 C 262.742188 105.066406 261.097656 107.359375 259.304688 109.269531 C 258.960938 109.46875 258.886719 109.992188 259.144531 110.441406 C 259.402344 110.890625 259.890625 111.09375 260.238281 110.894531 Z M 260.234375 110.894531 "/>
		<path style=" stroke:none;fill-rule:evenodd;fill:rgb(100%,100%,100%);fill-opacity:1;" d="M 259.386719 133.082031 C 261.160156 135.003906 262.789063 137.3125 265.40625 140.414063 C 269.296875 145.03125 272.875 145.042969 274.953125 141.074219 C 277.382813 137.3125 275.613281 134.199219 269.675781 133.089844 C 265.683594 132.34375 262.878906 132.066406 260.328125 131.464844 L 260.328125 131.46875 C 259.980469 131.269531 259.492188 131.46875 259.234375 131.914063 C 258.972656 132.359375 259.039063 132.882813 259.386719 133.085938 Z M 259.386719 133.082031 "/>
		<path style=" stroke:none;fill-rule:evenodd;fill:rgb(100%,100%,100%);fill-opacity:1;" d="M 250.957031 140.898438 C 251.53125 143.449219 251.785156 146.261719 252.5 150.253906 C 253.5625 156.199219 256.65625 157.996094 260.4375 155.597656 C 264.421875 153.558594 264.441406 149.976563 259.859375 146.046875 C 256.777344 143.40625 254.484375 141.757813 252.578125 139.964844 L 252.574219 139.964844 C 252.378906 139.621094 251.855469 139.550781 251.402344 139.808594 C 250.953125 140.0625 250.753906 140.550781 250.953125 140.898438 Z M 250.957031 140.898438 "/>
		<path style=" stroke:none;fill-rule:evenodd;fill:rgb(100%,100%,100%);fill-opacity:1;" d="M 244.21875 102.230469 C 253.175781 103.929688 259.953125 111.800781 259.953125 121.253906 C 259.953125 130.707031 253.175781 138.574219 244.21875 140.273438 L 244.21875 135.511719 C 250.585938 133.894531 255.300781 128.125 255.300781 121.253906 C 255.300781 114.382813 250.585938 108.609375 244.21875 106.996094 Z M 244.21875 102.230469 "/>
		<path style=" stroke:none;fill-rule:evenodd;fill:rgb(100%,100%,100%);fill-opacity:1;" d="M 262.785156 199.667969 C 265.28125 200.445313 267.847656 201.628906 271.664063 203.007813 C 277.34375 205.0625 280.445313 203.28125 280.253906 198.804688 C 280.484375 194.332031 277.394531 192.527344 271.699219 194.535156 C 267.867188 195.882813 265.292969 197.042969 262.789063 197.800781 C 262.390625 197.800781 262.070313 198.21875 262.0625 198.734375 C 262.0625 199.25 262.382813 199.671875 262.785156 199.671875 Z M 262.785156 199.667969 "/>
		<path style=" stroke:none;fill-rule:evenodd;fill:rgb(100%,100%,100%);fill-opacity:1;" d="M 252.421875 180.027344 C 254.34375 178.253906 256.648438 176.625 259.753906 174.007813 C 264.371094 170.117188 264.378906 166.539063 260.414063 164.464844 C 256.652344 162.03125 253.539063 163.804688 252.429688 169.738281 C 251.683594 173.730469 251.402344 176.539063 250.804688 179.085938 L 250.808594 179.085938 C 250.605469 179.433594 250.804688 179.921875 251.253906 180.183594 C 251.699219 180.441406 252.222656 180.375 252.421875 180.03125 Z M 252.421875 180.027344 "/>
		<path style=" stroke:none;fill-rule:evenodd;fill:rgb(100%,100%,100%);fill-opacity:1;" d="M 260.234375 188.457031 C 262.785156 187.882813 265.597656 187.628906 269.59375 186.914063 C 275.539063 185.851563 277.335938 182.757813 274.933594 178.976563 C 272.894531 174.992188 269.316406 174.972656 265.386719 179.554688 C 262.742188 182.636719 261.097656 184.929688 259.304688 186.835938 C 258.960938 187.035156 258.886719 187.558594 259.144531 188.007813 C 259.402344 188.457031 259.890625 188.660156 260.238281 188.460938 L 260.234375 188.460938 Z M 260.234375 188.457031 "/>
		<path style=" stroke:none;fill-rule:evenodd;fill:rgb(100%,100%,100%);fill-opacity:1;" d="M 259.386719 210.652344 C 261.160156 212.574219 262.789063 214.878906 265.40625 217.984375 C 269.296875 222.601563 272.875 222.609375 274.953125 218.640625 C 277.382813 214.882813 275.613281 211.769531 269.675781 210.660156 C 265.683594 209.914063 262.878906 209.632813 260.328125 209.035156 L 260.328125 209.039063 C 259.980469 208.835938 259.492188 209.035156 259.234375 209.484375 C 258.972656 209.929688 259.039063 210.453125 259.386719 210.652344 Z M 259.386719 210.652344 "/>
		<path style=" stroke:none;fill-rule:evenodd;fill:rgb(100%,100%,100%);fill-opacity:1;" d="M 250.957031 218.464844 C 251.53125 221.015625 251.785156 223.828125 252.5 227.824219 C 253.5625 233.769531 256.65625 235.566406 260.4375 233.164063 C 264.421875 231.125 264.441406 227.546875 259.859375 223.617188 C 256.777344 220.972656 254.484375 219.328125 252.578125 217.535156 L 252.574219 217.535156 C 252.378906 217.191406 251.855469 217.117188 251.402344 217.375 C 250.953125 217.632813 250.753906 218.121094 250.953125 218.46875 L 250.953125 218.464844 Z M 250.957031 218.464844 "/>
		<path style=" stroke:none;fill-rule:evenodd;fill:rgb(100%,100%,100%);fill-opacity:1;" d="M 244.21875 179.800781 C 253.175781 181.496094 259.953125 189.371094 259.953125 198.824219 C 259.953125 208.273438 253.175781 216.148438 244.21875 217.84375 L 244.21875 213.082031 C 250.585938 211.464844 255.300781 205.695313 255.300781 198.824219 C 255.300781 191.953125 250.585938 186.179688 244.21875 184.5625 Z M 244.21875 179.800781 "/>
		<path style=" stroke:none;fill-rule:evenodd;fill:rgb(100%,100%,100%);fill-opacity:1;" d="M 262.785156 44.402344 C 265.28125 45.179688 267.847656 46.359375 271.664063 47.738281 C 277.34375 49.792969 280.445313 48.011719 280.253906 43.539063 C 280.484375 39.066406 277.394531 37.257813 271.699219 39.261719 C 267.867188 40.613281 265.292969 41.777344 262.789063 42.53125 C 262.390625 42.53125 262.070313 42.949219 262.0625 43.464844 C 262.0625 43.980469 262.382813 44.402344 262.785156 44.40625 Z M 262.785156 44.402344 "/>
		<path style=" stroke:none;fill-rule:evenodd;fill:rgb(100%,100%,100%);fill-opacity:1;" d="M 252.421875 24.757813 C 254.34375 22.984375 256.648438 21.355469 259.753906 18.738281 C 264.371094 14.847656 264.378906 11.269531 260.414063 9.195313 C 256.652344 6.765625 253.539063 8.535156 252.429688 14.46875 C 251.683594 18.460938 251.402344 21.269531 250.804688 23.816406 L 250.808594 23.816406 C 250.605469 24.164063 250.804688 24.652344 251.253906 24.910156 C 251.699219 25.171875 252.222656 25.105469 252.421875 24.761719 Z M 252.421875 24.757813 "/>
		<path style=" stroke:none;fill-rule:evenodd;fill:rgb(100%,100%,100%);fill-opacity:1;" d="M 260.234375 33.191406 C 262.785156 32.617188 265.597656 32.359375 269.59375 31.648438 C 275.539063 30.585938 277.335938 27.488281 274.933594 23.707031 C 272.894531 19.722656 269.316406 19.703125 265.386719 24.285156 C 262.742188 27.371094 261.097656 29.664063 259.304688 31.566406 C 258.960938 31.769531 258.886719 32.292969 259.144531 32.742188 C 259.402344 33.191406 259.890625 33.390625 260.238281 33.195313 Z M 260.234375 33.191406 "/>
		<path style=" stroke:none;fill-rule:evenodd;fill:rgb(100%,100%,100%);fill-opacity:1;" d="M 259.386719 55.382813 C 261.160156 57.304688 262.789063 59.609375 265.40625 62.714844 C 269.296875 67.332031 272.875 67.339844 274.953125 63.375 C 277.382813 59.613281 275.613281 56.5 269.675781 55.390625 C 265.683594 54.640625 262.878906 54.363281 260.328125 53.765625 Z M 259.386719 55.382813 "/>
		<path style=" stroke:none;fill-rule:evenodd;fill:rgb(100%,100%,100%);fill-opacity:1;" d="M 259.855469 54.574219 L 260.328125 53.765625 C 259.984375 53.566406 259.492188 53.765625 259.234375 54.214844 C 258.972656 54.660156 259.039063 55.183594 259.386719 55.382813 Z M 259.855469 54.574219 "/>
		<path style=" stroke:none;fill-rule:evenodd;fill:rgb(100%,100%,100%);fill-opacity:1;" d="M 250.957031 63.195313 C 251.53125 65.746094 251.785156 68.558594 252.5 72.554688 C 253.5625 78.5 256.65625 80.296875 260.4375 77.898438 C 264.421875 75.855469 264.441406 72.277344 259.859375 68.347656 C 256.777344 65.703125 254.484375 64.058594 252.578125 62.265625 L 252.574219 62.269531 C 252.378906 61.921875 251.855469 61.847656 251.402344 62.105469 C 250.953125 62.363281 250.753906 62.847656 250.953125 63.195313 Z M 250.957031 63.195313 "/>
		<path style=" stroke:none;fill-rule:evenodd;fill:rgb(100%,100%,100%);fill-opacity:1;" d="M 244.21875 24.53125 C 253.175781 26.226563 259.953125 34.101563 259.953125 43.550781 C 259.953125 53.003906 253.175781 60.878906 244.21875 62.574219 L 244.21875 57.8125 C 250.585938 56.195313 255.300781 50.421875 255.300781 43.550781 C 255.300781 36.683594 250.585938 30.910156 244.21875 29.292969 Z M 244.21875 24.53125 "/>
		<path style=" stroke:none;fill-rule:evenodd;fill:rgb(100%,100%,100%);fill-opacity:1;" d="M 239.539063 241.140625 L 244.226563 241.140625 L 244.226563 1.324219 L 239.539063 1.324219 Z M 239.539063 241.140625 "/>
		<g clip-path="url(#clip2)" clip-rule="nonzero">
			<path style=" stroke:none;fill-rule:evenodd;fill:rgb(21.972656%,19.993591%,21.166992%);fill-opacity:1;" d="M 323.964844 23.929688 L 323.964844 4 L 316.519531 4 L 316.519531 1.332031 L 334.425781 1.332031 L 334.425781 4 L 326.949219 4 L 326.949219 23.929688 Z M 337.398438 23.929688 L 337.398438 1.332031 L 341.898438 1.332031 L 347.25 17.332031 C 347.742188 18.820313 348.101563 19.9375 348.324219 20.679688 C 348.582031 19.855469 348.984375 18.648438 349.53125 17.054688 L 354.941406 1.332031 L 358.964844 1.332031 L 358.964844 23.929688 L 356.078125 23.929688 L 356.078125 5.015625 L 349.511719 23.929688 L 346.816406 23.929688 L 340.285156 4.695313 L 340.285156 23.929688 Z M 337.398438 23.929688 "/>
		</g>
	</g>
</svg>
